<svg width="36" height="36" viewBox="0 0 36 36" fill="none" xmlns="http://www.w3.org/2000/svg">
<rect x="1" y="1" width="34" height="34" rx="17" stroke="white" stroke-width="2"/>
<path d="M12.1672 19.5834L21.0258 19.5834L17.1742 23.1446C16.9545 23.3484 16.831 23.6249 16.831 23.9131C16.831 24.2014 16.9545 24.4778 17.1742 24.6817C17.394 24.8855 17.6921 25 18.0029 25C18.3137 25 18.6118 24.8855 18.8316 24.6817L24.6673 19.2695C24.7736 19.1665 24.8569 19.0451 24.9124 18.9123C25.0292 18.6487 25.0292 18.3531 24.9124 18.0896C24.8569 17.9567 24.7736 17.8353 24.6673 17.7324L18.8316 12.3202C18.7231 12.2187 18.594 12.1382 18.4518 12.0832C18.3095 12.0283 18.157 12 18.0029 12C17.8488 12 17.6963 12.0283 17.5541 12.0832C17.4118 12.1382 17.2827 12.2187 17.1742 12.3202C17.0648 12.4208 16.978 12.5405 16.9188 12.6724C16.8595 12.8043 16.829 12.9458 16.829 13.0887C16.829 13.2316 16.8595 13.3731 16.9188 13.505C16.978 13.6369 17.0648 13.7566 17.1742 13.8572L21.0258 17.4185L12.1672 17.4185C11.8576 17.4185 11.5607 17.5325 11.3419 17.7355C11.123 17.9385 11 18.2138 11 18.5009C11 18.788 11.123 19.0633 11.3418 19.2663C11.5607 19.4693 11.8576 19.5834 12.1672 19.5834Z" fill="white"/>
</svg>
